PathFileType  4	(X/Y/Z) C:\Users\antoi\Documents\MyRepositories\mobilecap\ResultsAnalysis
DataRate	CameraRate	NumFrames	NumMarkers	Units	OrigDataRate	OrigDataStartFrame	OrigNumFrames
100.0	100.0	4	55	mm	100.0	1	800
Frame#	Time	r_knee			r_shank_antsup			r_ankle			r_calc			r_5meta			r_toe			L_knee			L_shank_antsup			L_ankle			L_calc			L_5meta			L_toe			r_mknee			r_mankle			L_mknee			L_mankle			r_sh2			r_sh3			r_sh4			L_sh2			L_sh3			r_thigh1			r_thigh2			r_thigh3			r_thigh4			r_thigh5			L_thigh1			L_thigh2			L_thigh3			L_thigh4			r.ASIS			r.PSIS			L.ASIS			L.PSIS			C7			R_Shoulder			L_Shoulder			R_Sternum			L_Sternum			R_humerus			R_elbow_med			R_elbow_lat			R_forearm			R_wrist_radius			R_wrist_ulna			L_humerus			L_elbow_med			L_elbow_lat			L_forearm			L_wrist_radius			L_wrist_ulna			R_HJC			L_HJC			R_HJC_reg			L_HJC_reg			
		X1	Y1	Z1	X2	Y2	Z2	X3	Y3	Z3	X4	Y4	Z4	X5	Y5	Z5	X6	Y6	Z6	X7	Y7	Z7	X8	Y8	Z8	X9	Y9	Z9	X10	Y10	Z10	X11	Y11	Z11	X12	Y12	Z12	X13	Y13	Z13	X14	Y14	Z14	X15	Y15	Z15	X16	Y16	Z16	X17	Y17	Z17	X18	Y18	Z18	X19	Y19	Z19	X20	Y20	Z20	X21	Y21	Z21	X22	Y22	Z22	X23	Y23	Z23	X24	Y24	Z24	X25	Y25	Z25	X26	Y26	Z26	X27	Y27	Z27	X28	Y28	Z28	X29	Y29	Z29	X30	Y30	Z30	X31	Y31	Z31	X32	Y32	Z32	X33	Y33	Z33	X34	Y34	Z34	X35	Y35	Z35	X36	Y36	Z36	X37	Y37	Z37	X38	Y38	Z38	X39	Y39	Z39	X40	Y40	Z40	X41	Y41	Z41	X42	Y42	Z42	X43	Y43	Z43	X44	Y44	Z44	X45	Y45	Z45	X46	Y46	Z46	X47	Y47	Z47	X48	Y48	Z48	X49	Y49	Z49	X50	Y50	Z50	X51	Y51	Z51	X52	Y52	Z52	X53	Y53	Z53	X54	Y54	Z54	X55	Y55	Z55	

1	0.00000000	-217.83652	607.08179	-672.22100	-207.99059	464.51993	-663.37935	-286.91269	103.58401	-629.58965	-347.05588	72.01260	-689.48773	-151.59407	40.39483	-599.29014	-113.79525	64.97540	-652.99702	-241.68454	608.17913	-1114.54847	-206.93006	415.38019	-1122.89515	-294.98331	115.76073	-1160.42468	-350.10021	74.34566	-1102.40773	-150.80237	31.79237	-1194.68506	-111.95105	64.51795	-1135.85241	-237.69795	587.14483	-790.82179	-254.03888	128.06739	-727.82684	-233.30899	579.97089	-994.39915	-252.21246	125.43933	-1068.86195	-218.02333	351.40392	-655.69410	-271.19122	474.98862	-622.69037	-285.04678	362.72812	-606.95776	-278.22145	434.50507	-1170.38477	-293.30318	315.33074	-1169.78467	-139.85898	896.53414	-678.76979	-143.20809	786.04712	-672.02522	-206.71478	763.96054	-658.76350	-251.66973	900.87921	-696.82105	-256.10253	782.40496	-678.50940	-145.20085	894.46543	-1092.86904	-161.06612	762.05243	-1104.32897	-250.73090	913.57989	-1099.58243	-267.60888	776.10723	-1114.35060	-76.83959	1171.85339	-762.75662	-268.91204	1204.85849	-831.66032	-109.82186	1164.27711	-1035.67018	-279.67569	1207.96730	-922.69800	-276.87967	1679.46325	-893.71719	-194.95231	1660.80674	-721.09663	-227.44781	1667.36353	-1069.91674	-115.89610	1631.53479	-873.95542	-118.99244	1633.13990	-924.80335	-197.46809	1394.22276	-637.39180	-278.01301	1279.75644	-673.72547	-272.28930	1304.47885	-605.15139	-194.97187	1111.93773	-551.79122	-166.90820	1019.79678	-539.83120	-201.65131	1021.00418	-522.25089	-202.56775	1375.42944	-1138.05931	-280.77215	1295.51796	-1089.23112	-266.36553	1295.20790	-1162.66957	-184.49107	1110.11913	-1207.61513	-153.79227	1034.08533	-1207.92020	-183.43495	1035.36170	-1228.94597	-160.05251	1077.68501	-790.15734	-189.01837	1077.36178	-985.49763	-150.66120	1081.43859	-796.60229	-171.96010	1087.59024	-976.74572	
2	0.01000000	-217.68373	607.18597	-672.11101	-207.96852	464.51236	-663.40629	-286.91536	103.58717	-629.60678	-347.05706	72.02519	-689.48080	-151.56251	40.41880	-599.22730	-113.79349	65.02756	-653.02617	-241.68311	608.19193	-1114.54620	-206.90475	415.38570	-1122.87655	-294.98818	115.76954	-1160.39068	-350.15352	74.32082	-1102.37986	-150.79792	31.81439	-1194.67519	-111.90837	64.66227	-1135.93774	-237.77753	586.97360	-790.75907	-253.99993	128.16589	-727.89674	-233.28041	580.00902	-994.29201	-252.23205	125.46884	-1068.86665	-218.06287	351.48879	-655.67055	-270.51727	473.00721	-622.85128	-285.02933	362.72931	-606.96048	-278.19386	434.47999	-1170.34577	-293.38252	315.44882	-1169.78455	-139.84993	896.53856	-678.77468	-143.21467	786.06502	-672.11120	-206.73174	763.95091	-658.82034	-251.65137	900.89172	-696.91231	-256.08681	782.42956	-678.57402	-145.30459	894.40839	-1092.78418	-161.07022	762.17527	-1104.51524	-250.89640	913.68812	-1099.77774	-267.65252	776.10993	-1114.35320	-76.86263	1171.85438	-762.77854	-268.93859	1204.86779	-831.68401	-109.82663	1164.32277	-1035.72707	-279.72408	1207.95313	-922.65147	-276.84141	1679.50490	-893.67684	-194.85249	1660.75108	-721.11418	-227.54156	1667.45841	-1069.84444	-115.90965	1631.51532	-873.94882	-118.98830	1633.19716	-924.87008	-197.36435	1394.12793	-637.43113	-277.96960	1279.63465	-673.80078	-272.09665	1304.40385	-605.25991	-194.80333	1111.77762	-552.02999	-166.71443	1019.73226	-540.06497	-201.36574	1020.84636	-522.58252	-202.71170	1375.50215	-1138.10237	-280.84223	1295.54975	-1089.22586	-266.55196	1295.32034	-1162.74128	-184.68423	1110.25723	-1207.73781	-154.04527	1034.19125	-1208.02137	-183.28990	1035.56654	-1229.66574	-160.05341	1077.68245	-790.19188	-189.03501	1077.38796	-985.52989	-150.65904	1081.48674	-796.59029	-172.01931	1087.59731	-976.74867	
3	0.02000000	-217.63641	607.14660	-672.20031	-207.92419	464.52205	-663.44257	-286.92150	103.60053	-629.61892	-347.06087	72.05227	-689.46115	-151.56839	40.45060	-599.21398	-113.78996	65.07770	-653.04627	-241.67081	608.20926	-1114.55792	-206.87327	415.38679	-1122.87020	-295.00174	115.79654	-1160.38157	-350.16458	74.32935	-1102.34720	-150.80193	31.82752	-1194.65826	-111.95932	64.75944	-1135.96990	-237.72953	586.99208	-790.77889	-253.98654	128.20895	-727.93045	-233.21138	580.02319	-994.24870	-252.24861	125.47062	-1068.87767	-218.01795	351.55333	-655.71868	-270.49133	473.13040	-622.86336	-285.00524	362.73313	-606.96645	-278.19387	434.49737	-1170.35556	-293.38880	315.48864	-1169.78395	-139.85109	896.54853	-678.78651	-143.22143	786.11301	-672.17411	-206.69022	763.98206	-658.84515	-251.65235	900.93208	-696.97774	-256.05063	782.47915	-678.60857	-145.38644	894.47739	-1092.82409	-161.11271	762.19467	-1104.55038	-250.99079	913.73215	-1099.84159	-267.70249	776.11739	-1114.35562	-76.92412	1171.82925	-762.83326	-268.99125	1204.85936	-831.63670	-109.86796	1164.29333	-1035.62784	-279.77137	1207.98419	-922.61756	-276.82496	1679.53705	-893.60520	-194.79987	1660.73573	-721.09199	-227.62602	1667.53466	-1069.77834	-115.91402	1631.53570	-874.00023	-118.98935	1633.24505	-924.90713	-197.26586	1394.08138	-637.49792	-277.89939	1279.56785	-673.91976	-271.94712	1304.39682	-605.25380	-194.62664	1111.69563	-552.20012	-166.55477	1019.65277	-540.33823	-201.13975	1020.73695	-522.83628	-202.82656	1375.56312	-1138.15126	-280.92904	1295.61693	-1089.17951	-266.71549	1295.41834	-1162.78831	-184.85548	1110.36580	-1207.86791	-154.27096	1034.27840	-1208.08853	-183.38690	1035.65407	-1229.91176	-160.12304	1077.66955	-790.16136	-189.11114	1077.38115	-985.49842	-150.71408	1081.45971	-796.66008	-172.04855	1087.64383	-976.71581	
4	0.03000000	-217.69133	607.00297	-672.44214	-207.86715	464.52101	-663.45733	-286.92205	103.61425	-629.60738	-347.06667	72.08323	-689.43423	-151.59362	40.45910	-599.23327	-113.79845	65.10441	-653.02315	-241.64894	608.22229	-1114.56159	-206.84614	415.39154	-1122.88458	-295.01260	115.84179	-1160.37706	-350.14008	74.35159	-1102.34523	-150.79910	31.84970	-1194.63861	-112.03498	64.78173	-1135.94438	-237.64518	587.06692	-790.83197	-254.02011	128.16452	-727.87695	-233.11713	580.02630	-994.24705	-252.25179	125.45432	-1068.88397	-217.90748	351.56759	-655.78521	-270.67447	473.87152	-622.82146	-284.99391	362.76131	-606.95138	-278.19863	434.52976	-1170.38132	-293.37251	315.47974	-1169.79191	-139.87678	896.52374	-678.83248	-143.20104	786.15064	-672.21819	-206.62518	764.01163	-658.84248	-251.65909	900.96900	-696.98636	-256.02375	782.49455	-678.60787	-145.44157	894.56102	-1092.89809	-161.16237	762.18409	-1104.53485	-251.06229	913.73391	-1099.85594	-267.73717	776.14343	-1114.34496	-76.88913	1171.83315	-762.98658	-269.06292	1204.83542	-831.53230	-109.92515	1164.23995	-1035.45489	-279.81126	1208.03435	-922.61266	-276.84209	1679.55660	-893.49479	-194.77283	1660.71728	-721.04272	-227.71843	1667.61890	-1069.78268	-115.90266	1631.58626	-874.06860	-118.99651	1633.29115	-924.92356	-197.16385	1394.04116	-637.58111	-277.83660	1279.53069	-673.99648	-271.87273	1304.36554	-605.24814	-194.46841	1111.65367	-552.29015	-166.38945	1019.58053	-540.58378	-200.95449	1020.65372	-522.99862	-202.92640	1375.62447	-1138.18244	-281.05057	1295.73713	-1089.13714	-266.87645	1295.52586	-1162.86158	-185.05065	1110.46890	-1208.03460	-154.48008	1034.35305	-1208.14142	-183.65107	1035.65886	-1229.85423	-160.13958	1077.67698	-790.11846	-189.19019	1077.35977	-985.44615	-150.74028	1081.41683	-796.84998	-171.96532	1087.73357	-976.70718	
